<?xml version="1.0" standalone="no"?>
<!DOCTYPE svg PUBLIC "-//W3C//DTD SVG 20010904//EN"
 "http://www.w3.org/TR/2001/REC-SVG-20010904/DTD/svg10.dtd">
<svg version="1.0" xmlns="http://www.w3.org/2000/svg"
 width="700.000000pt" height="700.000000pt" viewBox="0 0 700.000000 700.000000"
 preserveAspectRatio="xMidYMid meet">
<metadata>
Created by potrace 1.14, written by Peter Selinger 2001-2017
</metadata>
<g transform="translate(0.000000,700.000000) scale(0.100000,-0.100000)"
fill="#000000" stroke="none">
<path d="M711 6626 c-10 -12 -13 -448 -14 -2265 -1 -2106 0 -2250 16 -2275 10
-14 25 -26 35 -27 51 -3 1441 -4 1463 -1 23 3 25 8 25 47 0 43 0 43 -40 48
-23 2 -268 4 -546 5 -278 0 -510 1 -516 1 -6 1 -15 16 -20 34 -12 43 -11 4324
2 4337 14 14 1122 15 1214 0 41 -7 84 -13 95 -15 41 -6 190 -48 199 -56 6 -5
16 -9 23 -9 25 0 276 -128 293 -150 3 -3 21 -16 40 -27 19 -12 44 -30 55 -40
11 -10 31 -26 45 -36 85 -58 322 -327 397 -452 235 -388 353 -739 399 -1190
10 -91 11 -379 2 -430 -4 -22 -14 -89 -23 -150 -87 -591 -391 -1167 -780
-1477 -71 -57 -237 -168 -250 -168 -4 0 -24 -10 -44 -22 -20 -13 -38 -23 -41
-23 -17 -2 -69 -37 -74 -50 -3 -9 -6 -43 -6 -75 l0 -59 88 24 c241 64 454 170
667 329 94 70 268 241 346 341 190 240 340 525 428 813 21 70 41 141 44 157 3
17 12 64 21 105 48 242 52 621 10 850 -2 14 -7 41 -10 60 -77 495 -297 944
-623 1268 -309 308 -707 520 -1066 567 -27 4 -61 9 -75 12 -14 3 -417 8 -896
10 -777 4 -871 3 -883 -11z"/>
<path d="M2316 4953 c1 -70 5 -326 8 -568 4 -242 9 -564 11 -715 2 -151 7
-473 10 -715 12 -865 14 -976 20 -1435 4 -256 8 -553 10 -660 2 -107 4 -244 4
-303 l1 -108 57 3 56 3 -2 205 c-4 300 -15 1034 -26 1715 -7 446 -14 872 -20
1300 -4 215 -8 480 -10 590 -3 179 -2 198 12 180 8 -11 66 -90 129 -175 63
-85 120 -162 127 -170 7 -8 35 -44 62 -80 27 -36 55 -72 62 -80 7 -8 50 -63
95 -121 216 -278 530 -669 537 -669 5 0 27 26 49 59 50 70 121 242 138 330 2
12 -39 70 -91 127 -25 28 -67 78 -160 189 -150 181 -350 413 -425 494 -29 31
-167 184 -190 211 -26 30 -164 183 -180 200 -8 8 -69 76 -134 150 -65 74 -126
143 -135 153 -16 17 -17 11 -15 -110z"/>
<path d="M5786 4791 c-192 -275 -388 -548 -904 -1255 -31 -43 -66 -91 -77
-106 -11 -16 -125 -173 -254 -349 l-233 -319 -71 81 c-38 45 -93 108 -121 141
-28 32 -55 65 -59 72 -12 21 -21 12 -72 -79 -26 -45 -76 -121 -111 -168 -35
-48 -64 -90 -64 -95 0 -5 20 -30 43 -55 23 -25 51 -57 62 -70 148 -177 211
-249 215 -249 8 0 26 25 167 230 66 96 193 276 283 400 254 350 592 817 625
864 75 105 358 496 359 496 1 0 1 -107 0 -237 -3 -251 -10 -1135 -20 -2418 -3
-423 -7 -868 -8 -987 -1 -120 0 -222 3 -226 3 -5 107 -9 231 -8 l225 1 -2 525
c-1 289 -5 1328 -8 2310 -4 982 -7 1785 -8 1786 -1 1 -92 -127 -201 -285z"/>
</g>
</svg>
