<svg version="1.1" id="Layer_1" xmlns="http://www.w3.org/2000/svg" xmlns:xlink="http://www.w3.org/1999/xlink" x="0px" y="0px"
	 width="100%" viewBox="0 0 896 1024" enable-background="new 0 0 896 1024" xml:space="preserve">
<path fill="#000000" opacity="1.000000" stroke="none" 
	d="
M435.829834,739.074463 
	C410.582886,682.436768 386.630402,625.657898 362.839447,568.806152 
	C346.477173,529.706299 328.158844,491.589172 303.182312,457.064423 
	C301.612854,454.895050 300.627136,451.935364 297.436310,451.522827 
	C295.774536,452.756866 296.143951,454.377533 296.144257,455.806488 
	C296.164673,556.467102 296.180023,657.127747 296.284851,757.788269 
	C296.303101,775.320557 304.432709,787.882324 320.283630,795.511658 
	C323.890930,797.247925 328.144836,798.406738 330.182739,803.997192 
	C303.732544,804.107300 277.906586,806.190247 251.766617,804.505554 
	C252.418518,799.549377 255.539810,798.004395 258.590698,796.879578 
	C276.273407,790.360168 284.780945,777.192017 286.308899,758.971680 
	C286.598724,755.515503 286.082184,751.998962 286.081909,748.510254 
	C286.076294,677.180786 285.830017,605.849854 286.244751,534.522766 
	C286.390045,509.531342 286.270264,484.531555 286.778015,459.544159 
	C287.162415,440.628113 280.195465,425.942200 264.807343,414.497742 
	C241.645187,397.271454 217.711639,381.790863 189.292786,374.759399 
	C163.009857,368.256439 136.481995,366.242798 109.602592,370.778107 
	C100.420189,372.327393 91.170006,373.451599 82.163521,375.929016 
	C81.212288,376.190674 80.189659,376.242737 79.195358,376.289032 
	C75.405998,376.465576 71.404427,376.519928 70.391769,371.799805 
	C69.327087,366.837189 73.696121,366.105621 76.837654,365.197418 
	C99.697762,358.588776 123.077492,355.768066 146.859070,355.552917 
	C185.307983,355.205048 221.632690,363.059265 254.942123,382.842255 
	C283.495270,399.800446 307.640381,421.633942 328.147125,447.816315 
	C353.799591,480.568481 373.240936,516.929871 392.052307,553.767090 
	C416.178253,601.011475 435.970459,650.122742 455.698792,699.279724 
	C462.521179,716.278931 469.761414,733.110535 476.839325,750.006714 
	C477.204987,750.879639 477.240082,752.035889 479.104034,752.656189 
	C509.991028,679.046448 540.896790,605.391968 571.813538,531.711304 
	C569.260193,528.888245 566.128235,529.319336 563.246399,529.295654 
	C544.915466,529.145020 526.583191,529.141541 508.252899,528.950562 
	C505.571716,528.922546 501.622498,529.977722 500.615906,526.986816 
	C499.398010,523.367859 503.557587,522.343689 505.963257,520.843140 
	C514.782959,515.341919 518.960693,507.566315 518.917664,497.091034 
	C518.809082,470.593414 518.571838,444.084320 519.199707,417.599091 
	C519.812073,391.767365 519.941650,365.937958 519.486511,340.122437 
	C519.151611,321.130096 518.797974,302.142395 518.852783,283.148254 
	C518.900330,266.655792 520.354797,250.184525 519.698120,233.683167 
	C519.546265,229.867081 519.291687,225.999817 518.511536,222.276138 
	C517.128662,215.676178 513.655029,210.329239 507.899261,206.541412 
	C504.639465,204.396149 500.940430,202.545044 500.060730,198.200348 
	C501.418732,196.419769 503.212433,196.864899 504.794891,196.861771 
	C524.460449,196.822861 544.126160,196.815643 563.791626,196.863052 
	C565.668640,196.867569 568.170715,196.179764 568.889099,198.782822 
	C569.543579,201.154282 567.665344,202.456482 565.829285,203.344299 
	C552.465576,209.806198 548.354431,221.538712 548.329895,235.122833 
	C548.193237,310.951904 548.243774,386.781342 548.226440,462.610657 
	C548.223022,477.609741 548.212769,492.608856 548.186157,507.607910 
	C548.173218,514.917358 549.876221,516.674866 557.348938,516.669678 
	C561.841614,516.666565 566.352600,516.701111 570.822021,516.323730 
	C576.397339,515.853027 579.717224,512.326904 581.808411,507.356049 
	C588.976440,490.316498 596.185791,473.294250 603.393005,456.271179 
	C608.263977,444.766357 613.253906,433.310699 617.997498,421.753784 
	C620.096680,416.639343 623.331970,414.377716 629.075439,414.535828 
	C642.065369,414.893402 655.071228,414.649567 668.070251,414.717651 
	C670.313660,414.729401 673.246277,414.173492 673.954712,417.124329 
	C674.629211,419.934296 671.982849,421.145630 669.987854,422.219055 
	C657.885620,428.730652 653.454285,439.512665 653.220642,452.487640 
	C653.019653,463.650055 653.163635,474.818787 653.171265,485.984741 
	C653.177185,494.693115 650.987549,497.627930 642.663269,499.909698 
	C638.326416,501.098419 633.996216,502.321686 629.626404,503.377533 
	C622.635193,505.066711 619.998596,503.029694 619.942810,495.721375 
	C619.847473,483.222900 619.921814,470.723236 619.889404,458.224152 
	C619.884827,456.448090 620.309387,454.617035 619.148499,452.133453 
	C608.747253,472.795227 601.087463,493.975769 592.524597,514.523987 
	C594.447998,517.013550 596.741516,516.430542 598.827576,516.678955 
	C614.946472,518.598389 630.157349,514.277527 645.451599,510.167633 
	C671.615906,503.136566 691.432434,486.796661 709.396301,467.490753 
	C736.074524,438.819489 749.599792,403.876556 757.573303,366.392029 
	C763.521912,338.427002 762.475159,310.158234 759.875610,281.888702 
	C754.920288,228.000229 731.798828,183.022797 692.429688,146.454483 
	C661.564270,117.784927 624.906982,100.225578 583.113342,94.557106 
	C507.266876,84.270035 442.512299,106.679504 390.226013,162.808945 
	C366.629242,188.140137 352.816498,218.867783 345.697906,252.622696 
	C336.140900,297.940033 339.157959,342.564789 355.834564,385.649506 
	C373.345581,430.890076 407.974823,459.528839 451.381714,478.604767 
	C458.529724,481.746063 465.796997,484.721008 473.519592,486.300568 
	C476.072052,486.822662 478.644318,487.654480 478.714417,490.763641 
	C478.782806,493.798340 477.134277,496.145233 474.449188,497.630951 
	C470.753326,499.675934 467.010803,498.834351 463.312347,497.643799 
	C447.889252,492.678986 432.981598,486.566803 419.048920,478.176239 
	C365.723633,446.062378 333.467041,398.873230 319.314178,338.778900 
	C317.560669,331.333405 316.586426,323.687988 316.769409,315.993988 
	C317.228180,296.701721 315.299500,277.317200 318.602905,258.133789 
	C324.614777,223.221756 338.931183,191.902512 361.577454,164.823746 
	C395.522217,124.235085 439.998444,100.255508 490.562866,87.406326 
	C550.349609,72.213608 608.689880,76.898209 664.174683,104.778458 
	C724.461365,135.071548 765.166809,182.699646 785.856262,246.983292 
	C792.500549,267.627533 795.688049,288.994202 796.467285,310.765350 
	C797.943237,352.002319 790.628174,391.485901 771.907532,428.249634 
	C743.126160,484.770782 696.127136,516.462952 633.918640,526.356018 
	C620.559021,528.480652 607.020630,528.087280 593.574036,528.987488 
	C588.240601,529.344543 585.269836,531.265686 583.144104,536.351440 
	C553.662781,606.884827 523.981995,677.334778 494.330780,747.797058 
	C493.687225,749.326294 492.909637,750.817200 492.038452,752.229736 
	C485.615234,762.644897 485.203369,773.700867 490.624817,784.231750 
	C504.184204,810.570129 516.234131,837.722900 533.192932,862.256714 
	C547.239258,882.577148 564.221252,899.738770 583.197632,915.567993 
	C608.075256,936.319641 636.301453,947.281860 668.024170,950.777161 
	C682.176392,952.336609 696.242310,952.576294 710.224976,949.526978 
	C714.132812,948.674744 717.359375,949.280823 718.630249,953.490784 
	C719.912537,957.738342 717.259827,960.004639 713.793701,961.569275 
	C711.656738,962.533997 709.417847,963.077271 707.044373,963.197449 
	C677.552307,964.689697 648.626038,961.684265 620.126099,953.609863 
	C599.506775,947.768188 581.825378,936.742249 564.636108,924.597351 
	C537.123596,905.158630 515.909302,879.886719 497.447113,852.032593 
	C473.729706,816.249756 453.835327,778.396179 435.829834,739.074463 
z"/>
<path fill="#000000" opacity="1.000000" stroke="none" 
	d="
M619.993164,663.000000 
	C619.974365,626.350159 619.952454,590.200378 619.942871,554.050537 
	C619.942261,551.719910 619.997620,549.387634 620.096802,547.059082 
	C620.293640,542.439148 622.451294,539.681946 627.279663,539.054382 
	C633.549133,538.239563 639.708374,536.834778 645.824707,535.195007 
	C650.139587,534.038147 652.419189,535.772278 652.954834,540.328003 
	C653.187134,542.303833 653.114746,544.320190 653.114502,546.318115 
	C653.103638,617.951416 653.099731,689.584778 653.041199,761.218079 
	C653.036133,767.424622 653.482361,773.537537 655.370911,779.469849 
	C657.573914,786.390259 661.639832,791.908813 667.946350,795.659973 
	C669.091370,796.341003 670.277466,796.952820 671.422729,797.633484 
	C673.059204,798.606140 674.559509,799.771118 674.128418,801.952087 
	C673.636047,804.442810 671.476379,804.148804 669.719360,804.171448 
	C662.057434,804.270508 654.394165,804.312256 646.731506,804.304138 
	C632.571594,804.289124 618.411438,804.250549 604.251953,804.149780 
	C602.383423,804.136475 599.791626,804.879272 599.183044,802.251099 
	C598.615417,799.799683 600.532898,798.251038 602.531555,797.241882 
	C615.636902,790.624451 619.921326,779.263000 619.915710,765.452820 
	C619.901855,731.468567 619.962280,697.484253 619.993164,663.000000 
z"/>
</svg>