<?xml version="1.0" encoding="utf-8"?>
<svg viewBox="0 0 500 500" xmlns="http://www.w3.org/2000/svg">
  <path opacity="1.000000" stroke="none" d="M 82.626 346.032 C 92.88 345.918 103.134 345.739 113.388 345.706 C 127.139 345.662 140.891 345.731 155.304 346.175 C 157.163 346.811 158.42 346.047 159.616 346.26 C 159.695 348.063 159.713 350.844 159.8 352.854 C 158.533 352.979 157.571 353.157 156.61 353.158 C 122.485 353.168 88.36 353.189 54.236 353.071 C 52.745 353.065 51.258 351.768 50.227 350.525 C 51.013 348.095 51.627 346.214 51.63 344.333 C 51.684 301.007 51.672 257.682 51.672 214.356 C 51.671 154.534 51.686 94.711 51.597 34.889 C 51.594 33.013 50.524 31.139 49.951 29.264 C 49.93 28.288 49.91 27.311 50.49 26.494 C 52.048 26.853 53.004 27.224 53.961 27.225 C 89.215 27.256 124.469 27.266 159.723 27.201 C 161.078 27.198 162.432 26.426 163.787 26.013 C 187.703 25.961 209.864 32.415 230.126 44.881 C 270.711 69.851 293.959 106.987 302.928 153.022 C 312.66 202.968 304.201 249.879 274.867 292.017 C 255.296 320.132 229 339.469 195.592 348.484 C 194.019 348.908 192.42 349.238 190.037 349.8 C 190.037 346.607 189.837 343.843 190.14 341.135 C 190.253 340.122 191.34 338.802 192.317 338.363 C 229.717 321.527 251.537 291.146 265.61 254.077 C 271.85 237.642 275.482 220.592 277.253 202.521 C 277.625 200.373 277.542 198.76 277.46 197.147 C 277.386 192.192 277.313 187.237 277.594 181.664 C 277.692 180.125 277.435 179.204 277.178 178.283 C 275.208 153.662 269.425 130.011 258.53 107.79 C 244.538 79.25 224.942 55.891 195.675 41.902 C 183.647 36.153 170.827 33.487 156.946 32.651 C 155.488 31.863 154.6 31.29 153.711 31.288 C 130.309 31.238 106.907 31.223 83.506 31.317 C 82.265 31.322 81.028 32.334 79.789 32.877 C 79.518 34.461 79.011 36.046 79.01 37.631 C 78.97 138.573 78.967 239.516 79.01 340.458 C 79.01 342.161 79.622 343.864 80.416 346 C 81.465 346.299 82.045 346.165 82.626 346.032 M 278.252 174.768 C 278.252 174.768 278.154 174.827 278.252 174.768 Z" style=""/>
  <path opacity="1.000000" stroke="none" d="M 289.233 280.513 C 309.898 304.208 303.164 296.887 313.203 308.104 C 306.336 317.88 307.102 317.977 295.725 333.383 C 277.456 311.654 281.751 316.556 272.4 305.902 C 280.073 296.81 284.118 289.73 289.233 280.513 Z" style=""/>
  <path opacity="1.000000" stroke="none" d="M 168.783 172.634 C 167.877 170.272 166.027 173.579 165.354 136.937 C 183.516 158.439 212.355 188.821 230.501 210.338 C 239.525 221.039 248.42 231.851 257.558 242.453 C 259.483 244.688 261.107 246.006 260.208 248.749 C 254.427 266.395 252.826 268.396 246.925 275.525 C 239.355 265.688 173.06 183.788 168.783 172.634 Z" style=""/>
  <path opacity="1.000000" stroke="none" d="M 49.872 29.725 C 50.524 31.138 51.594 33.013 51.597 34.889 C 51.686 94.711 51.671 154.533 51.672 214.356 C 51.672 257.681 51.684 301.007 51.63 344.332 C 51.627 346.214 51.014 348.095 50.317 350.105 C 49.89 349.072 49.777 347.912 49.777 346.751 C 49.776 241.23 49.784 135.708 49.872 29.725 Z" style=""/>
  <path opacity="1.000000" stroke="none" d="M 163.4 25.863 C 162.433 26.426 161.079 27.198 159.723 27.2 C 124.469 27.265 89.215 27.255 53.961 27.225 C 53.004 27.224 52.048 26.852 50.815 26.315 C 51.354 25.871 52.17 25.676 52.986 25.676 C 89.661 25.678 126.337 25.697 163.4 25.863 Z" style=""/>
  <path opacity="1.000000" stroke="none" d="M 80.204 32.941 C 81.028 32.333 82.265 31.321 83.506 31.316 C 106.907 31.223 130.31 31.238 153.711 31.287 C 154.6 31.289 155.488 31.862 156.514 32.529 C 131.307 32.927 105.963 32.967 80.204 32.941 Z" style=""/>
  <path fill="#FFFFFD" opacity="1.000000" stroke="none" d="M 400.859 406.37 C 401.22 407.604 401.289 408.945 401.078 410.677 C 400.445 411.113 400.094 411.158 399.742 411.203 C 399.359 410.77 398.977 410.336 398.499 409.63 C 399.126 408.397 399.847 407.437 400.859 406.37 Z"/>
  <path fill="#22211B" opacity="1.000000" stroke="none" d="M 277.322 197.484 C 277.543 198.76 277.625 200.373 277.384 202.101 C 277.102 200.751 277.143 199.286 277.322 197.484 Z" style=""/>
  <path fill="#22211B" opacity="1.000000" stroke="none" d="M 159.602 346.904 C 158.359 347.023 157.163 346.811 155.751 346.297 C 156.907 346.188 158.278 346.38 159.602 346.904 Z" style=""/>
  <path fill="#22211B" opacity="1.000000" stroke="none" d="M 277.094 178.591 C 277.435 179.204 277.692 180.125 277.684 181.213 C 277.283 180.553 277.146 179.726 277.094 178.591 Z" style=""/>
  <path fill="#22211B" opacity="1.000000" stroke="none" d="M 82.315 345.919 C 82.046 346.165 81.465 346.299 80.803 346.236 C 81.149 345.962 81.576 345.885 82.315 345.919 Z" style=""/>
  <path fill="#22211B" opacity="1.000000" stroke="none" d="M 278.203 174.797 C 278.154 174.827 278.252 174.767 278.203 174.797 Z" style=""/>
  <path fill="#B8B6B2" opacity="1.000000" stroke="none" d="M 399.85 411.534 C 400.094 411.158 400.445 411.113 401.063 411.081 C 400.872 411.352 400.414 411.608 399.85 411.534 Z" style=""/>
  <path style="stroke: rgb(0, 0, 0); paint-order: markers stroke; fill-rule: evenodd;" d="M 398.872 179.199 L 427.298 138.517 L 428.378 467.19 L 396.503 467.104 L 398.872 179.199 Z"/>
  <path style="stroke: rgb(0, 0, 0);" d="M 308.552 303.385 L 398.56 179.89 L 398.633 189.104 L 312.248 308.566 C 310.429 302.973 308.552 303.385 308.552 303.385 Z"/>
  <path style="stroke: rgb(0, 0, 0);" d="M 177.655 467.216 L 172.783 151.017 L 165.922 141.211 L 170.55 467.156 L 177.655 467.216 Z"/>
</svg>